solid OpenSCAD_Model
  facet normal -1 0 0
    outer loop
      vertex -70 -40 -10
      vertex -70 -40 -4
      vertex -70 -10 -4
    endloop
  endfacet
  facet normal -1 0 0
    outer loop
      vertex -70 -40 -10
      vertex -70 -10 -4
      vertex -70 -4.949999999999999 -10
    endloop
  endfacet
  facet normal -1 0 0
    outer loop
      vertex -70 -10 -4
      vertex -70 -4.949999999999999 -4
      vertex -70 -4.949999999999999 -10
    endloop
  endfacet
  facet normal 0 0 -1
    outer loop
      vertex -70 -40 -10
      vertex -70 -4.949999999999999 -10
      vertex 8.662500000000001 -4.949999999999999 -10
    endloop
  endfacet
  facet normal 0 -1 0
    outer loop
      vertex -82 -4.949999999999999 -10
      vertex -70 -4.949999999999999 -10
      vertex -82 -4.949999999999999 5
    endloop
  endfacet
  facet normal -1 0 0
    outer loop
      vertex -82 -4.949999999999999 -10
      vertex -82 -1.894282990207194 0.4267963140691311
      vertex -82 -1.4369091524095883 0.2631453381255673
    endloop
  endfacet
  facet normal -1 0 0
    outer loop
      vertex -82 -4.949999999999999 -10
      vertex -82 -2.333413847288688 0.634489741475643
      vertex -82 -1.894282990207194 0.4267963140691311
    endloop
  endfacet
  facet normal -1 0 0
    outer loop
      vertex -82 -4.949999999999999 -10
      vertex -82 -2.7500726534470306 0.8842254191024015
      vertex -82 -2.333413847288688 0.634489741475643
    endloop
  endfacet
  facet normal -1 0 0
    outer loop
      vertex -82 -4.949999999999999 -10
      vertex -82 -3.1402467566100447 1.1735982558544524
      vertex -82 -2.7500726534470306 0.8842254191024015
    endloop
  endfacet
  facet normal -1 0 0
    outer loop
      vertex -82 -4.949999999999999 -10
      vertex -82 -1.4369091524095883 0.2631453381255673
      vertex -82 -0.9656970939798347 0.14511286200400964
    endloop
  endfacet
  facet normal -1 0 0
    outer loop
      vertex -82 -4.949999999999999 -10
      vertex -82 -0.9656970939798347 0.14511286200400964
      vertex -82 -0.48518484463132494 0.07383560297262548
    endloop
  endfacet
  facet normal -1 0 0
    outer loop
      vertex -82 -4.949999999999999 -10
      vertex -82 -0.48518484463132494 0.07383560297262548
      vertex -82 0 0.05000000000000071
    endloop
  endfacet
  facet normal -1 0 0
    outer loop
      vertex -82 -4.949999999999999 -10
      vertex -82 0 0.05000000000000071
      vertex -82 0.48518484463132494 0.07383560297262548
    endloop
  endfacet
  facet normal -1 0 0
    outer loop
      vertex -82 -4.949999999999999 -10
      vertex -82 0.48518484463132494 0.07383560297262548
      vertex -82 0.9656970939798347 0.14511286200400964
    endloop
  endfacet
  facet normal -1 0 0
    outer loop
      vertex -82 -4.949999999999999 -10
      vertex -82 0.9656970939798347 0.14511286200400964
      vertex -82 1.4369091524095883 0.2631453381255673
    endloop
  endfacet
  facet normal -1 0 0
    outer loop
      vertex -82 -4.949999999999999 -10
      vertex -82 1.4369091524095883 0.2631453381255673
      vertex -82 1.894282990207194 0.4267963140691311
    endloop
  endfacet
  facet normal 0 -1 0
    outer loop
      vertex -70 -4.949999999999999 -4
      vertex -82 -4.949999999999999 5
      vertex -70 -4.949999999999999 -10
    endloop
  endfacet
  facet normal -1 0 0
    outer loop
      vertex -82 -4.949999999999999 -10
      vertex -82 -3.50017856687341 1.49982143312659
      vertex -82 -3.1402467566100447 1.1735982558544524
    endloop
  endfacet
  facet normal -1 0 0
    outer loop
      vertex -82 -4.949999999999999 -10
      vertex -82 -3.8264017441455476 1.8597532433899553
      vertex -82 -3.50017856687341 1.49982143312659
    endloop
  endfacet
  facet normal -1 0 0
    outer loop
      vertex -82 -4.949999999999999 -10
      vertex -82 -4.1157745808975985 2.2499273465529694
      vertex -82 -3.8264017441455476 1.8597532433899553
    endloop
  endfacet
  facet normal -1 0 0
    outer loop
      vertex -82 -4.949999999999999 -10
      vertex -82 -4.365510258524357 2.666586152711312
      vertex -82 -4.1157745808975985 2.2499273465529694
    endloop
  endfacet
  facet normal -1 0 0
    outer loop
      vertex -82 -4.949999999999999 -10
      vertex -82 -4.573203685930869 3.105717009792806
      vertex -82 -4.365510258524357 2.666586152711312
    endloop
  endfacet
  facet normal -1 0 0
    outer loop
      vertex -82 -4.949999999999999 -10
      vertex -82 -4.736854661874433 3.563090847590412
      vertex -82 -4.573203685930869 3.105717009792806
    endloop
  endfacet
  facet normal -1 0 0
    outer loop
      vertex -82 -4.949999999999999 -10
      vertex -82 -4.85488713799599 4.034302906020165
      vertex -82 -4.736854661874433 3.563090847590412
    endloop
  endfacet
  facet normal -1 0 0
    outer loop
      vertex -82 -4.949999999999999 -10
      vertex -82 -4.9261643970273745 4.514815155368675
      vertex -82 -4.85488713799599 4.034302906020165
    endloop
  endfacet
  facet normal -1 0 0
    outer loop
      vertex -82 -4.949999999999999 -10
      vertex -82 -4.949999999999999 5
      vertex -82 -4.9261643970273745 4.514815155368675
    endloop
  endfacet
  facet normal -1 0 0
    outer loop
      vertex -70 -10 -4
      vertex -70 -10 5
      vertex -70 -4.949999999999999 -4
    endloop
  endfacet
  facet normal 0 -1 0
    outer loop
      vertex -70 -40 -10
      vertex 70 -40 -4
      vertex -70 -40 -4
    endloop
  endfacet
  facet normal 0 0 1
    outer loop
      vertex -70 -40 -4
      vertex 70 -40 -4
      vertex -70 -10 -4
    endloop
  endfacet
  facet normal 0 0 -1
    outer loop
      vertex -82 -4.949999999999999 -10
      vertex 82 4.949999999999999 -10
      vertex -70 -4.949999999999999 -10
    endloop
  endfacet
  facet normal 0 -1 0
    outer loop
      vertex -70 -4.949999999999999 -4
      vertex -70 -4.949999999999999 5
      vertex -82 -4.949999999999999 5
    endloop
  endfacet
  facet normal -1 0 0
    outer loop
      vertex -70 -10 5
      vertex -70 -4.949999999999999 5
      vertex -70 -4.949999999999999 -4
    endloop
  endfacet
  facet normal -1 0 0
    outer loop
      vertex -82 -1.894282990207194 0.4267963140691311
      vertex -82 -2.333413847288688 0.634489741475643
      vertex -82 -1.894282990207194 9.573203685930869
    endloop
  endfacet
  facet normal -1 0 0
    outer loop
      vertex -82 -2.7500726534470306 0.8842254191024015
      vertex -82 -2.333413847288688 9.365510258524356
      vertex -82 -2.333413847288688 0.634489741475643
    endloop
  endfacet
  facet normal -1 0 0
    outer loop
      vertex -82 -1.4369091524095883 0.2631453381255673
      vertex -82 -1.894282990207194 0.4267963140691311
      vertex -82 -1.4369091524095883 9.736854661874432
    endloop
  endfacet
  facet normal -1 0 0
    outer loop
      vertex -82 -0.9656970939798347 0.14511286200400964
      vertex -82 -0.48518484463132494 9.926164397027375
      vertex -82 -0.48518484463132494 0.07383560297262548
    endloop
  endfacet
  facet normal -1 0 0
    outer loop
      vertex -82 -0.48518484463132494 0.07383560297262548
      vertex -82 0 9.95
      vertex -82 0 0.05000000000000071
    endloop
  endfacet
  facet normal -1 0 0
    outer loop
      vertex -82 -1.4369091524095883 0.2631453381255673
      vertex -82 -0.9656970939798347 9.854887137995991
      vertex -82 -0.9656970939798347 0.14511286200400964
    endloop
  endfacet
  facet normal -1 0 0
    outer loop
      vertex -82 -3.8264017441455476 1.8597532433899553
      vertex -82 -4.1157745808975985 2.2499273465529694
      vertex -82 -3.8264017441455476 8.140246756610045
    endloop
  endfacet
  facet normal -1 0 0
    outer loop
      vertex -82 -4.1157745808975985 2.2499273465529694
      vertex -82 -4.365510258524357 2.666586152711312
      vertex -82 -4.1157745808975985 7.750072653447031
    endloop
  endfacet
  facet normal -1 0 0
    outer loop
      vertex -82 -3.1402467566100447 1.1735982558544524
      vertex -82 -3.50017856687341 1.49982143312659
      vertex -82 -3.1402467566100447 8.826401744145548
    endloop
  endfacet
  facet normal -1 0 0
    outer loop
      vertex -82 -3.50017856687341 1.49982143312659
      vertex -82 -3.8264017441455476 1.8597532433899553
      vertex -82 -3.50017856687341 8.50017856687341
    endloop
  endfacet
  facet normal -1 0 0
    outer loop
      vertex -82 -2.7500726534470306 0.8842254191024015
      vertex -82 -3.1402467566100447 1.1735982558544524
      vertex -82 -2.7500726534470306 9.115774580897599
    endloop
  endfacet
  facet normal -1 0 0
    outer loop
      vertex -82 -4.365510258524357 2.666586152711312
      vertex -82 -4.573203685930869 3.105717009792806
      vertex -82 -4.365510258524357 7.333413847288687
    endloop
  endfacet
  facet normal -1 0 0
    outer loop
      vertex -82 -4.573203685930869 3.105717009792806
      vertex -82 -4.736854661874433 3.563090847590412
      vertex -82 -4.573203685930869 6.894282990207194
    endloop
  endfacet
  facet normal -1 0 0
    outer loop
      vertex -82 -4.736854661874433 3.563090847590412
      vertex -82 -4.85488713799599 4.034302906020165
      vertex -82 -4.736854661874433 6.436909152409588
    endloop
  endfacet
  facet normal -1 0 0
    outer loop
      vertex -82 -4.85488713799599 4.034302906020165
      vertex -82 -4.9261643970273745 4.514815155368675
      vertex -82 -4.85488713799599 5.965697093979835
    endloop
  endfacet
  facet normal -1 0 0
    outer loop
      vertex -82 -4.9261643970273745 4.514815155368675
      vertex -82 -4.949999999999999 5
      vertex -82 -4.9261643970273745 5.485184844631325
    endloop
  endfacet
  facet normal -1 0 0
    outer loop
      vertex -82 -4.9261643970273745 4.514815155368675
      vertex -82 -4.9261643970273745 5.485184844631325
      vertex -82 -4.85488713799599 5.965697093979835
    endloop
  endfacet
  facet normal -1 0 0
    outer loop
      vertex -82 -4.85488713799599 4.034302906020165
      vertex -82 -4.85488713799599 5.965697093979835
      vertex -82 -4.736854661874433 6.436909152409588
    endloop
  endfacet
  facet normal -1 0 0
    outer loop
      vertex -82 -4.736854661874433 3.563090847590412
      vertex -82 -4.736854661874433 6.436909152409588
      vertex -82 -4.573203685930869 6.894282990207194
    endloop
  endfacet
  facet normal -1 0 0
    outer loop
      vertex -82 -4.573203685930869 3.105717009792806
      vertex -82 -4.573203685930869 6.894282990207194
      vertex -82 -4.365510258524357 7.333413847288687
    endloop
  endfacet
  facet normal -1 0 0
    outer loop
      vertex -82 -4.365510258524357 2.666586152711312
      vertex -82 -4.365510258524357 7.333413847288687
      vertex -82 -4.1157745808975985 7.750072653447031
    endloop
  endfacet
  facet normal -1 0 0
    outer loop
      vertex -82 -4.1157745808975985 2.2499273465529694
      vertex -82 -4.1157745808975985 7.750072653447031
      vertex -82 -3.8264017441455476 8.140246756610045
    endloop
  endfacet
  facet normal -1 0 0
    outer loop
      vertex -82 -3.8264017441455476 1.8597532433899553
      vertex -82 -3.8264017441455476 8.140246756610045
      vertex -82 -3.50017856687341 8.50017856687341
    endloop
  endfacet
  facet normal -1 0 0
    outer loop
      vertex -82 -3.50017856687341 1.49982143312659
      vertex -82 -3.50017856687341 8.50017856687341
      vertex -82 -3.1402467566100447 8.826401744145548
    endloop
  endfacet
  facet normal -1 0 0
    outer loop
      vertex -82 -3.1402467566100447 1.1735982558544524
      vertex -82 -3.1402467566100447 8.826401744145548
      vertex -82 -2.7500726534470306 9.115774580897599
    endloop
  endfacet
  facet normal -1 0 0
    outer loop
      vertex -82 -2.7500726534470306 0.8842254191024015
      vertex -82 -2.7500726534470306 9.115774580897599
      vertex -82 -2.333413847288688 9.365510258524356
    endloop
  endfacet
  facet normal -1 0 0
    outer loop
      vertex -82 -2.333413847288688 0.634489741475643
      vertex -82 -2.333413847288688 9.365510258524356
      vertex -82 -1.894282990207194 9.573203685930869
    endloop
  endfacet
  facet normal -1 0 0
    outer loop
      vertex -82 -1.894282990207194 0.4267963140691311
      vertex -82 -1.894282990207194 9.573203685930869
      vertex -82 -1.4369091524095883 9.736854661874432
    endloop
  endfacet
  facet normal -1 0 0
    outer loop
      vertex -82 -1.4369091524095883 0.2631453381255673
      vertex -82 -1.4369091524095883 9.736854661874432
      vertex -82 -0.9656970939798347 9.854887137995991
    endloop
  endfacet
  facet normal -1 0 0
    outer loop
      vertex -82 -0.9656970939798347 0.14511286200400964
      vertex -82 -0.9656970939798347 9.854887137995991
      vertex -82 -0.48518484463132494 9.926164397027375
    endloop
  endfacet
  facet normal -1 0 0
    outer loop
      vertex -82 -0.48518484463132494 0.07383560297262548
      vertex -82 -0.48518484463132494 9.926164397027375
      vertex -82 0 9.95
    endloop
  endfacet
  facet normal 0 -1 0
    outer loop
      vertex -70 -10 -4
      vertex 70 -10 5
      vertex -70 -10 5
    endloop
  endfacet
  facet normal 0 0 1
    outer loop
      vertex -70 -10 5
      vertex 70 -4.949999999999999 5
      vertex -70 -4.949999999999999 5
    endloop
  endfacet
  facet normal 0 -0.9987954562051725 0.049067674327416676
    outer loop
      vertex -82 -4.949999999999999 5
      vertex 82 -4.9261643970273745 5.485184844631325
      vertex -82 -4.9261643970273745 5.485184844631325
    endloop
  endfacet
  facet normal 0 -0.9891765099647809 0.14673047445536236
    outer loop
      vertex -82 -4.9261643970273745 5.485184844631325
      vertex 82 -4.85488713799599 5.965697093979835
      vertex -82 -4.85488713799599 5.965697093979835
    endloop
  endfacet
  facet normal 0 -0.9987954562051724 0.04906767432741661
    outer loop
      vertex 82 -4.9261643970273745 5.485184844631325
      vertex -82 -4.949999999999999 5
      vertex -70 -4.949999999999999 5
    endloop
  endfacet
  facet normal 0 -0.9700312531945434 0.2429801799032658
    outer loop
      vertex -82 -4.85488713799599 5.965697093979835
      vertex 82 -4.736854661874433 6.436909152409588
      vertex -82 -4.736854661874433 6.436909152409588
    endloop
  endfacet
  facet normal 0 -0.9415440651830213 0.3368898533922187
    outer loop
      vertex -82 -4.736854661874433 6.436909152409588
      vertex 82 -4.573203685930869 6.894282990207194
      vertex -82 -4.573203685930869 6.894282990207194
    endloop
  endfacet
  facet normal 0 -0.9039892931234433 0.4275550934302823
    outer loop
      vertex -82 -4.573203685930869 6.894282990207194
      vertex 82 -4.365510258524357 7.333413847288687
      vertex -82 -4.365510258524357 7.333413847288687
    endloop
  endfacet
  facet normal 0 -0.8577286100002727 0.514102744193221
    outer loop
      vertex -82 -4.365510258524357 7.333413847288687
      vertex 82 -4.1157745808975985 7.750072653447031
      vertex -82 -4.1157745808975985 7.750072653447031
    endloop
  endfacet
  facet normal 0 -0.8032075314806448 0.5956993044924334
    outer loop
      vertex -82 -4.1157745808975985 7.750072653447031
      vertex 82 -3.8264017441455476 8.140246756610045
      vertex -82 -3.8264017441455476 8.140246756610045
    endloop
  endfacet
  facet normal 0 -0.7409511253549595 0.671558954847018
    outer loop
      vertex -82 -3.8264017441455476 8.140246756610045
      vertex 82 -3.50017856687341 8.50017856687341
      vertex -82 -3.50017856687341 8.50017856687341
    endloop
  endfacet
  facet normal 0 -0.6715589548470174 0.7409511253549599
    outer loop
      vertex -82 -3.50017856687341 8.50017856687341
      vertex 82 -3.50017856687341 8.50017856687341
      vertex -82 -3.1402467566100447 8.826401744145548
    endloop
  endfacet
  facet normal 0 -0.5956993044924334 0.8032075314806448
    outer loop
      vertex -82 -3.1402467566100447 8.826401744145548
      vertex 82 -3.1402467566100447 8.826401744145548
      vertex -82 -2.7500726534470306 9.115774580897599
    endloop
  endfacet
  facet normal 0 -0.5141027441932203 0.8577286100002728
    outer loop
      vertex -82 -2.7500726534470306 9.115774580897599
      vertex 82 -2.7500726534470306 9.115774580897599
      vertex -82 -2.333413847288688 9.365510258524356
    endloop
  endfacet
  facet normal 0 -0.4275550934302834 0.9039892931234427
    outer loop
      vertex -82 -2.333413847288688 9.365510258524356
      vertex 82 -2.333413847288688 9.365510258524356
      vertex -82 -1.894282990207194 9.573203685930869
    endloop
  endfacet
  facet normal 0 -0.33688985339221716 0.9415440651830217
    outer loop
      vertex -82 -1.894282990207194 9.573203685930869
      vertex 82 -1.894282990207194 9.573203685930869
      vertex -82 -1.4369091524095883 9.736854661874432
    endloop
  endfacet
  facet normal 0 -0.24298017990326903 0.9700312531945428
    outer loop
      vertex -82 -1.4369091524095883 9.736854661874432
      vertex 82 -1.4369091524095883 9.736854661874432
      vertex -82 -0.9656970939798347 9.854887137995991
    endloop
  endfacet
  facet normal 0 -0.1467304744553606 0.9891765099647811
    outer loop
      vertex -82 -0.9656970939798347 9.854887137995991
      vertex 82 -0.9656970939798347 9.854887137995991
      vertex -82 -0.48518484463132494 9.926164397027375
    endloop
  endfacet
  facet normal 0 -0.04906767432741669 0.9987954562051724
    outer loop
      vertex -82 -0.48518484463132494 9.926164397027375
      vertex 82 -0.48518484463132494 9.926164397027375
      vertex -82 0 9.95
    endloop
  endfacet
  facet normal 0 0 -1
    outer loop
      vertex -82 4.949999999999999 -10
      vertex -70 4.949999999999999 -10
      vertex -82 -4.949999999999999 -10
    endloop
  endfacet
  facet normal 0 1 0
    outer loop
      vertex -82 4.949999999999999 -10
      vertex -70 4.949999999999999 -4
      vertex -70 4.949999999999999 -10
    endloop
  endfacet
  facet normal -1 0 0
    outer loop
      vertex -82 -4.949999999999999 -10
      vertex -82 1.894282990207194 0.4267963140691311
      vertex -82 4.949999999999999 -10
    endloop
  endfacet
  facet normal -1 0 0
    outer loop
      vertex -70 40 -10
      vertex -70 4.949999999999999 -10
      vertex -70 4.949999999999999 -4
    endloop
  endfacet
  facet normal -1 0 0
    outer loop
      vertex -70 10 -4
      vertex -70 40 -10
      vertex -70 4.949999999999999 -4
    endloop
  endfacet
  facet normal 0 0 -1
    outer loop
      vertex -82 -4.949999999999999 -10
      vertex -70 4.949999999999999 -10
      vertex -8.662500000000001 4.949999999999999 -10
    endloop
  endfacet
  facet normal 0 0 -1
    outer loop
      vertex -70 40 -10
      vertex -8.662500000000001 4.949999999999999 -10
      vertex -70 4.949999999999999 -10
    endloop
  endfacet
  facet normal -1 0 0
    outer loop
      vertex -82 4.949999999999999 -10
      vertex -82 1.894282990207194 0.4267963140691311
      vertex -82 2.333413847288688 0.634489741475643
    endloop
  endfacet
  facet normal -1 0 0
    outer loop
      vertex -82 4.949999999999999 -10
      vertex -82 2.333413847288688 0.634489741475643
      vertex -82 2.7500726534470306 0.8842254191024015
    endloop
  endfacet
  facet normal -1 0 0
    outer loop
      vertex -82 4.949999999999999 -10
      vertex -82 2.7500726534470306 0.8842254191024015
      vertex -82 3.1402467566100447 1.1735982558544524
    endloop
  endfacet
  facet normal 0 1 0
    outer loop
      vertex -82 4.949999999999999 -10
      vertex -82 4.949999999999999 5
      vertex -70 4.949999999999999 -4
    endloop
  endfacet
  facet normal -1 0 0
    outer loop
      vertex -82 4.949999999999999 -10
      vertex -82 3.1402467566100447 1.1735982558544524
      vertex -82 3.50017856687341 1.49982143312659
    endloop
  endfacet
  facet normal -1 0 0
    outer loop
      vertex -82 4.949999999999999 -10
      vertex -82 3.50017856687341 1.49982143312659
      vertex -82 3.8264017441455476 1.8597532433899553
    endloop
  endfacet
  facet normal -1 0 0
    outer loop
      vertex -82 4.949999999999999 -10
      vertex -82 3.8264017441455476 1.8597532433899553
      vertex -82 4.1157745808975985 2.2499273465529694
    endloop
  endfacet
  facet normal -1 0 0
    outer loop
      vertex -82 4.949999999999999 -10
      vertex -82 4.1157745808975985 2.2499273465529694
      vertex -82 4.365510258524357 2.666586152711312
    endloop
  endfacet
  facet normal -1 0 0
    outer loop
      vertex -82 4.949999999999999 -10
      vertex -82 4.365510258524357 2.666586152711312
      vertex -82 4.573203685930869 3.105717009792806
    endloop
  endfacet
  facet normal -1 0 0
    outer loop
      vertex -82 4.949999999999999 -10
      vertex -82 4.573203685930869 3.105717009792806
      vertex -82 4.736854661874433 3.563090847590412
    endloop
  endfacet
  facet normal -1 0 0
    outer loop
      vertex -82 4.949999999999999 -10
      vertex -82 4.736854661874433 3.563090847590412
      vertex -82 4.85488713799599 4.034302906020165
    endloop
  endfacet
  facet normal -1 0 0
    outer loop
      vertex -82 4.949999999999999 -10
      vertex -82 4.85488713799599 4.034302906020165
      vertex -82 4.9261643970273745 4.514815155368675
    endloop
  endfacet
  facet normal -1 0 0
    outer loop
      vertex -82 4.949999999999999 -10
      vertex -82 4.9261643970273745 4.514815155368675
      vertex -82 4.949999999999999 5
    endloop
  endfacet
  facet normal -1 0 0
    outer loop
      vertex -70 10 -4
      vertex -70 4.949999999999999 -4
      vertex -70 4.949999999999999 5
    endloop
  endfacet
  facet normal -1 0 0
    outer loop
      vertex -70 40 -10
      vertex -70 10 -4
      vertex -70 40 -4
    endloop
  endfacet
  facet normal 0 0 -1
    outer loop
      vertex -82 -4.949999999999999 -10
      vertex -8.662500000000001 4.949999999999999 -10
      vertex 70 4.949999999999999 -10
    endloop
  endfacet
  facet normal 0 1 0
    outer loop
      vertex -70 10 -4
      vertex -70 10 5
      vertex 70 10 -4
    endloop
  endfacet
  facet normal 0 1 0
    outer loop
      vertex -70 40 -10
      vertex -70 40 -4
      vertex 70 40 -10
    endloop
  endfacet
  facet normal 0 0 -1
    outer loop
      vertex -70 40 -10
      vertex 70 40 -10
      vertex -8.662500000000001 4.949999999999999 -10
    endloop
  endfacet
  facet normal 0 0 1
    outer loop
      vertex -70 10 -4
      vertex 70 10 -4
      vertex -70 40 -4
    endloop
  endfacet
  facet normal 0 1 0
    outer loop
      vertex -70 4.949999999999999 -4
      vertex -82 4.949999999999999 5
      vertex -70 4.949999999999999 5
    endloop
  endfacet
  facet normal -1 0 0
    outer loop
      vertex -70 10 -4
      vertex -70 4.949999999999999 5
      vertex -70 10 5
    endloop
  endfacet
  facet normal -1 0 0
    outer loop
      vertex -82 0 0.05000000000000071
      vertex -82 0.48518484463132494 9.926164397027375
      vertex -82 0.48518484463132494 0.07383560297262548
    endloop
  endfacet
  facet normal -1 0 0
    outer loop
      vertex -82 0.48518484463132494 0.07383560297262548
      vertex -82 0.9656970939798347 9.854887137995991
      vertex -82 0.9656970939798347 0.14511286200400964
    endloop
  endfacet
  facet normal -1 0 0
    outer loop
      vertex -82 0.9656970939798347 0.14511286200400964
      vertex -82 1.4369091524095883 9.736854661874432
      vertex -82 1.4369091524095883 0.2631453381255673
    endloop
  endfacet
  facet normal -1 0 0
    outer loop
      vertex -82 1.4369091524095883 0.2631453381255673
      vertex -82 1.894282990207194 9.573203685930869
      vertex -82 1.894282990207194 0.4267963140691311
    endloop
  endfacet
  facet normal -1 0 0
    outer loop
      vertex -82 1.894282990207194 0.4267963140691311
      vertex -82 2.333413847288688 9.365510258524356
      vertex -82 2.333413847288688 0.634489741475643
    endloop
  endfacet
  facet normal -1 0 0
    outer loop
      vertex -82 2.333413847288688 0.634489741475643
      vertex -82 2.7500726534470306 9.115774580897599
      vertex -82 2.7500726534470306 0.8842254191024015
    endloop
  endfacet
  facet normal -1 0 0
    outer loop
      vertex -82 2.7500726534470306 0.8842254191024015
      vertex -82 3.1402467566100447 8.826401744145548
      vertex -82 3.1402467566100447 1.1735982558544524
    endloop
  endfacet
  facet normal -1 0 0
    outer loop
      vertex -82 3.1402467566100447 1.1735982558544524
      vertex -82 3.50017856687341 8.50017856687341
      vertex -82 3.50017856687341 1.49982143312659
    endloop
  endfacet
  facet normal -1 0 0
    outer loop
      vertex -82 3.50017856687341 1.49982143312659
      vertex -82 3.8264017441455476 8.140246756610045
      vertex -82 3.8264017441455476 1.8597532433899553
    endloop
  endfacet
  facet normal -1 0 0
    outer loop
      vertex -82 3.8264017441455476 1.8597532433899553
      vertex -82 4.1157745808975985 7.750072653447031
      vertex -82 4.1157745808975985 2.2499273465529694
    endloop
  endfacet
  facet normal -1 0 0
    outer loop
      vertex -82 4.1157745808975985 2.2499273465529694
      vertex -82 4.365510258524357 7.333413847288687
      vertex -82 4.365510258524357 2.666586152711312
    endloop
  endfacet
  facet normal -1 0 0
    outer loop
      vertex -82 4.365510258524357 2.666586152711312
      vertex -82 4.573203685930869 6.894282990207194
      vertex -82 4.573203685930869 3.105717009792806
    endloop
  endfacet
  facet normal -1 0 0
    outer loop
      vertex -82 4.573203685930869 3.105717009792806
      vertex -82 4.736854661874433 6.436909152409588
      vertex -82 4.736854661874433 3.563090847590412
    endloop
  endfacet
  facet normal -1 0 0
    outer loop
      vertex -82 4.736854661874433 3.563090847590412
      vertex -82 4.85488713799599 5.965697093979835
      vertex -82 4.85488713799599 4.034302906020165
    endloop
  endfacet
  facet normal -1 0 0
    outer loop
      vertex -82 4.85488713799599 4.034302906020165
      vertex -82 4.9261643970273745 5.485184844631325
      vertex -82 4.9261643970273745 4.514815155368675
    endloop
  endfacet
  facet normal -1 0 0
    outer loop
      vertex -82 4.9261643970273745 4.514815155368675
      vertex -82 4.9261643970273745 5.485184844631325
      vertex -82 4.949999999999999 5
    endloop
  endfacet
  facet normal -1 0 0
    outer loop
      vertex -82 4.85488713799599 4.034302906020165
      vertex -82 4.85488713799599 5.965697093979835
      vertex -82 4.9261643970273745 5.485184844631325
    endloop
  endfacet
  facet normal -1 0 0
    outer loop
      vertex -82 4.736854661874433 3.563090847590412
      vertex -82 4.736854661874433 6.436909152409588
      vertex -82 4.85488713799599 5.965697093979835
    endloop
  endfacet
  facet normal -1 0 0
    outer loop
      vertex -82 4.573203685930869 3.105717009792806
      vertex -82 4.573203685930869 6.894282990207194
      vertex -82 4.736854661874433 6.436909152409588
    endloop
  endfacet
  facet normal 0 0.9987954562051724 0.049067674327416676
    outer loop
      vertex -82 4.949999999999999 5
      vertex -82 4.9261643970273745 5.485184844631325
      vertex -70 4.949999999999999 5
    endloop
  endfacet
  facet normal -1 0 0
    outer loop
      vertex -82 3.50017856687341 1.49982143312659
      vertex -82 3.50017856687341 8.50017856687341
      vertex -82 3.8264017441455476 8.140246756610045
    endloop
  endfacet
  facet normal -1 0 0
    outer loop
      vertex -82 3.1402467566100447 1.1735982558544524
      vertex -82 3.1402467566100447 8.826401744145548
      vertex -82 3.50017856687341 8.50017856687341
    endloop
  endfacet
  facet normal -1 0 0
    outer loop
      vertex -82 4.1157745808975985 2.2499273465529694
      vertex -82 4.1157745808975985 7.750072653447031
      vertex -82 4.365510258524357 7.333413847288687
    endloop
  endfacet
  facet normal -1 0 0
    outer loop
      vertex -82 4.365510258524357 2.666586152711312
      vertex -82 4.365510258524357 7.333413847288687
      vertex -82 4.573203685930869 6.894282990207194
    endloop
  endfacet
  facet normal -1 0 0
    outer loop
      vertex -82 3.8264017441455476 1.8597532433899553
      vertex -82 3.8264017441455476 8.140246756610045
      vertex -82 4.1157745808975985 7.750072653447031
    endloop
  endfacet
  facet normal -1 0 0
    outer loop
      vertex -82 0 0.05000000000000071
      vertex -82 0 9.95
      vertex -82 0.48518484463132494 9.926164397027375
    endloop
  endfacet
  facet normal -1 0 0
    outer loop
      vertex -82 0.48518484463132494 0.07383560297262548
      vertex -82 0.48518484463132494 9.926164397027375
      vertex -82 0.9656970939798347 9.854887137995991
    endloop
  endfacet
  facet normal -1 0 0
    outer loop
      vertex -82 0.9656970939798347 0.14511286200400964
      vertex -82 0.9656970939798347 9.854887137995991
      vertex -82 1.4369091524095883 9.736854661874432
    endloop
  endfacet
  facet normal -1 0 0
    outer loop
      vertex -82 1.894282990207194 0.4267963140691311
      vertex -82 1.894282990207194 9.573203685930869
      vertex -82 2.333413847288688 9.365510258524356
    endloop
  endfacet
  facet normal -1 0 0
    outer loop
      vertex -82 2.333413847288688 0.634489741475643
      vertex -82 2.333413847288688 9.365510258524356
      vertex -82 2.7500726534470306 9.115774580897599
    endloop
  endfacet
  facet normal -1 0 0
    outer loop
      vertex -82 1.4369091524095883 0.2631453381255673
      vertex -82 1.4369091524095883 9.736854661874432
      vertex -82 1.894282990207194 9.573203685930869
    endloop
  endfacet
  facet normal -1 0 0
    outer loop
      vertex -82 2.7500726534470306 0.8842254191024015
      vertex -82 2.7500726534470306 9.115774580897599
      vertex -82 3.1402467566100447 8.826401744145548
    endloop
  endfacet
  facet normal 0 0.9987954562051723 0.049067674327416676
    outer loop
      vertex -82 4.9261643970273745 5.485184844631325
      vertex 70 4.949999999999999 5
      vertex -70 4.949999999999999 5
    endloop
  endfacet
  facet normal 0 0.9891765099647809 0.14673047445536236
    outer loop
      vertex -82 4.9261643970273745 5.485184844631325
      vertex -82 4.85488713799599 5.965697093979835
      vertex 82 4.9261643970273745 5.485184844631325
    endloop
  endfacet
  facet normal 0 0.9700312531945434 0.2429801799032658
    outer loop
      vertex -82 4.85488713799599 5.965697093979835
      vertex -82 4.736854661874433 6.436909152409588
      vertex 82 4.85488713799599 5.965697093979835
    endloop
  endfacet
  facet normal 0 0.9415440651830213 0.3368898533922187
    outer loop
      vertex -82 4.736854661874433 6.436909152409588
      vertex -82 4.573203685930869 6.894282990207194
      vertex 82 4.736854661874433 6.436909152409588
    endloop
  endfacet
  facet normal 0 0.9039892931234433 0.4275550934302823
    outer loop
      vertex -82 4.573203685930869 6.894282990207194
      vertex -82 4.365510258524357 7.333413847288687
      vertex 82 4.573203685930869 6.894282990207194
    endloop
  endfacet
  facet normal 0 0 1
    outer loop
      vertex -70 10 5
      vertex -70 4.949999999999999 5
      vertex 70 10 5
    endloop
  endfacet
  facet normal 0 0.8577286100002727 0.514102744193221
    outer loop
      vertex -82 4.365510258524357 7.333413847288687
      vertex -82 4.1157745808975985 7.750072653447031
      vertex 82 4.365510258524357 7.333413847288687
    endloop
  endfacet
  facet normal 0 0.8032075314806448 0.5956993044924334
    outer loop
      vertex -82 4.1157745808975985 7.750072653447031
      vertex -82 3.8264017441455476 8.140246756610045
      vertex 82 4.1157745808975985 7.750072653447031
    endloop
  endfacet
  facet normal 0 0.7409511253549595 0.671558954847018
    outer loop
      vertex -82 3.50017856687341 8.50017856687341
      vertex 82 3.8264017441455476 8.140246756610045
      vertex -82 3.8264017441455476 8.140246756610045
    endloop
  endfacet
  facet normal 0 0.5141027441932203 0.8577286100002728
    outer loop
      vertex -82 2.333413847288688 9.365510258524356
      vertex 82 2.333413847288688 9.365510258524356
      vertex -82 2.7500726534470306 9.115774580897599
    endloop
  endfacet
  facet normal 0 0.04906767432741669 0.9987954562051724
    outer loop
      vertex -82 0 9.95
      vertex 82 0 9.95
      vertex -82 0.48518484463132494 9.926164397027375
    endloop
  endfacet
  facet normal 0 0.1467304744553606 0.9891765099647811
    outer loop
      vertex -82 0.48518484463132494 9.926164397027375
      vertex 82 0.48518484463132494 9.926164397027375
      vertex -82 0.9656970939798347 9.854887137995991
    endloop
  endfacet
  facet normal 0 0.24298017990326903 0.9700312531945428
    outer loop
      vertex -82 0.9656970939798347 9.854887137995991
      vertex 82 0.9656970939798347 9.854887137995991
      vertex -82 1.4369091524095883 9.736854661874432
    endloop
  endfacet
  facet normal 0 0.4275550934302834 0.9039892931234427
    outer loop
      vertex -82 2.333413847288688 9.365510258524356
      vertex -82 1.894282990207194 9.573203685930869
      vertex 82 1.894282990207194 9.573203685930869
    endloop
  endfacet
  facet normal 0 0.33688985339221716 0.9415440651830217
    outer loop
      vertex -82 1.894282990207194 9.573203685930869
      vertex -82 1.4369091524095883 9.736854661874432
      vertex 82 1.4369091524095883 9.736854661874432
    endloop
  endfacet
  facet normal 0 0.6715589548470174 0.7409511253549599
    outer loop
      vertex -82 3.50017856687341 8.50017856687341
      vertex -82 3.1402467566100447 8.826401744145548
      vertex 82 3.1402467566100447 8.826401744145548
    endloop
  endfacet
  facet normal 0 0.5956993044924334 0.8032075314806448
    outer loop
      vertex -82 3.1402467566100447 8.826401744145548
      vertex -82 2.7500726534470306 9.115774580897599
      vertex 82 2.7500726534470306 9.115774580897599
    endloop
  endfacet
  facet normal 0 0 -1
    outer loop
      vertex -70 -40 -10
      vertex 8.662500000000001 -4.949999999999999 -10
      vertex 70 -40 -10
    endloop
  endfacet
  facet normal 0 -1 0
    outer loop
      vertex -70 -40 -10
      vertex 70 -40 -10
      vertex 70 -40 -4
    endloop
  endfacet
  facet normal 0 0 -1
    outer loop
      vertex 82 4.949999999999999 -10
      vertex 8.662500000000001 -4.949999999999999 -10
      vertex -70 -4.949999999999999 -10
    endloop
  endfacet
  facet normal 0 0 1
    outer loop
      vertex -70 -10 -4
      vertex 70 -40 -4
      vertex 70 -10 -4
    endloop
  endfacet
  facet normal 0 -1 0
    outer loop
      vertex -70 -10 -4
      vertex 70 -10 -4
      vertex 70 -10 5
    endloop
  endfacet
  facet normal 1 0 0
    outer loop
      vertex 70 -40 -10
      vertex 70 -10 -4
      vertex 70 -40 -4
    endloop
  endfacet
  facet normal 0 0 -1
    outer loop
      vertex 70 -40 -10
      vertex 8.662500000000001 -4.949999999999999 -10
      vertex 70 -4.949999999999999 -10
    endloop
  endfacet
  facet normal 0 0 -1
    outer loop
      vertex 82 4.949999999999999 -10
      vertex 70 -4.949999999999999 -10
      vertex 8.662500000000001 -4.949999999999999 -10
    endloop
  endfacet
  facet normal 1 0 0
    outer loop
      vertex 70 -40 -10
      vertex 70 -4.949999999999999 -10
      vertex 70 -4.949999999999999 -4
    endloop
  endfacet
  facet normal 1 0 0
    outer loop
      vertex 70 -40 -10
      vertex 70 -4.949999999999999 -4
      vertex 70 -10 -4
    endloop
  endfacet
  facet normal 0 0 -1
    outer loop
      vertex 82 -4.949999999999999 -10
      vertex 70 -4.949999999999999 -10
      vertex 82 4.949999999999999 -10
    endloop
  endfacet
  facet normal 0 -1 0
    outer loop
      vertex 82 -4.949999999999999 -10
      vertex 70 -4.949999999999999 -4
      vertex 70 -4.949999999999999 -10
    endloop
  endfacet
  facet normal 1 0 0
    outer loop
      vertex 82 -4.949999999999999 -10
      vertex 82 4.949999999999999 -10
      vertex 82 -1.894282990207194 0.4267963140691311
    endloop
  endfacet
  facet normal 0 -1 0
    outer loop
      vertex 82 -4.949999999999999 -10
      vertex 82 -4.949999999999999 5
      vertex 70 -4.949999999999999 -4
    endloop
  endfacet
  facet normal 1 0 0
    outer loop
      vertex 82 -4.949999999999999 -10
      vertex 82 -1.894282990207194 0.4267963140691311
      vertex 82 -2.333413847288688 0.634489741475643
    endloop
  endfacet
  facet normal 1 0 0
    outer loop
      vertex 82 -4.949999999999999 -10
      vertex 82 -2.333413847288688 0.634489741475643
      vertex 82 -2.7500726534470306 0.8842254191024015
    endloop
  endfacet
  facet normal 1 0 0
    outer loop
      vertex 82 -4.949999999999999 -10
      vertex 82 -2.7500726534470306 0.8842254191024015
      vertex 82 -3.1402467566100447 1.1735982558544524
    endloop
  endfacet
  facet normal 1 0 0
    outer loop
      vertex 70 -10 -4
      vertex 70 -4.949999999999999 -4
      vertex 70 -4.949999999999999 5
    endloop
  endfacet
  facet normal 1 0 0
    outer loop
      vertex 82 -4.949999999999999 -10
      vertex 82 -3.1402467566100447 1.1735982558544524
      vertex 82 -3.50017856687341 1.49982143312659
    endloop
  endfacet
  facet normal 1 0 0
    outer loop
      vertex 82 -4.949999999999999 -10
      vertex 82 -3.50017856687341 1.49982143312659
      vertex 82 -3.8264017441455476 1.8597532433899553
    endloop
  endfacet
  facet normal 1 0 0
    outer loop
      vertex 82 -4.949999999999999 -10
      vertex 82 -3.8264017441455476 1.8597532433899553
      vertex 82 -4.1157745808975985 2.2499273465529694
    endloop
  endfacet
  facet normal 1 0 0
    outer loop
      vertex 82 -4.949999999999999 -10
      vertex 82 -4.1157745808975985 2.2499273465529694
      vertex 82 -4.365510258524357 2.666586152711312
    endloop
  endfacet
  facet normal 1 0 0
    outer loop
      vertex 82 -4.949999999999999 -10
      vertex 82 -4.365510258524357 2.666586152711312
      vertex 82 -4.573203685930869 3.105717009792806
    endloop
  endfacet
  facet normal 1 0 0
    outer loop
      vertex 82 -4.949999999999999 -10
      vertex 82 -4.573203685930869 3.105717009792806
      vertex 82 -4.736854661874433 3.563090847590412
    endloop
  endfacet
  facet normal 1 0 0
    outer loop
      vertex 82 -4.949999999999999 -10
      vertex 82 -4.736854661874433 3.563090847590412
      vertex 82 -4.85488713799599 4.034302906020165
    endloop
  endfacet
  facet normal 1 0 0
    outer loop
      vertex 82 -4.949999999999999 -10
      vertex 82 -4.85488713799599 4.034302906020165
      vertex 82 -4.9261643970273745 4.514815155368675
    endloop
  endfacet
  facet normal 1 0 0
    outer loop
      vertex 82 -4.949999999999999 -10
      vertex 82 -4.9261643970273745 4.514815155368675
      vertex 82 -4.949999999999999 5
    endloop
  endfacet
  facet normal 0 0 1
    outer loop
      vertex -70 -10 5
      vertex 70 -10 5
      vertex 70 -4.949999999999999 5
    endloop
  endfacet
  facet normal 0 -0.9987954562051723 0.049067674327416676
    outer loop
      vertex 82 -4.9261643970273745 5.485184844631325
      vertex -70 -4.949999999999999 5
      vertex 70 -4.949999999999999 5
    endloop
  endfacet
  facet normal 0 -0.9891765099647809 0.14673047445536236
    outer loop
      vertex -82 -4.9261643970273745 5.485184844631325
      vertex 82 -4.9261643970273745 5.485184844631325
      vertex 82 -4.85488713799599 5.965697093979835
    endloop
  endfacet
  facet normal 0 -0.9700312531945434 0.2429801799032658
    outer loop
      vertex -82 -4.85488713799599 5.965697093979835
      vertex 82 -4.85488713799599 5.965697093979835
      vertex 82 -4.736854661874433 6.436909152409588
    endloop
  endfacet
  facet normal 0 -0.9415440651830213 0.3368898533922187
    outer loop
      vertex -82 -4.736854661874433 6.436909152409588
      vertex 82 -4.736854661874433 6.436909152409588
      vertex 82 -4.573203685930869 6.894282990207194
    endloop
  endfacet
  facet normal 0 -0.9039892931234433 0.4275550934302823
    outer loop
      vertex -82 -4.573203685930869 6.894282990207194
      vertex 82 -4.573203685930869 6.894282990207194
      vertex 82 -4.365510258524357 7.333413847288687
    endloop
  endfacet
  facet normal 0 -0.8577286100002727 0.514102744193221
    outer loop
      vertex -82 -4.365510258524357 7.333413847288687
      vertex 82 -4.365510258524357 7.333413847288687
      vertex 82 -4.1157745808975985 7.750072653447031
    endloop
  endfacet
  facet normal 0 -0.8032075314806448 0.5956993044924334
    outer loop
      vertex -82 -4.1157745808975985 7.750072653447031
      vertex 82 -4.1157745808975985 7.750072653447031
      vertex 82 -3.8264017441455476 8.140246756610045
    endloop
  endfacet
  facet normal 0 -0.7409511253549595 0.671558954847018
    outer loop
      vertex -82 -3.8264017441455476 8.140246756610045
      vertex 82 -3.8264017441455476 8.140246756610045
      vertex 82 -3.50017856687341 8.50017856687341
    endloop
  endfacet
  facet normal 0 -0.6715589548470174 0.7409511253549599
    outer loop
      vertex -82 -3.1402467566100447 8.826401744145548
      vertex 82 -3.50017856687341 8.50017856687341
      vertex 82 -3.1402467566100447 8.826401744145548
    endloop
  endfacet
  facet normal 0 -0.5956993044924334 0.8032075314806448
    outer loop
      vertex -82 -2.7500726534470306 9.115774580897599
      vertex 82 -3.1402467566100447 8.826401744145548
      vertex 82 -2.7500726534470306 9.115774580897599
    endloop
  endfacet
  facet normal 0 -0.5141027441932203 0.8577286100002728
    outer loop
      vertex -82 -2.333413847288688 9.365510258524356
      vertex 82 -2.7500726534470306 9.115774580897599
      vertex 82 -2.333413847288688 9.365510258524356
    endloop
  endfacet
  facet normal 0 -0.4275550934302834 0.9039892931234427
    outer loop
      vertex -82 -1.894282990207194 9.573203685930869
      vertex 82 -2.333413847288688 9.365510258524356
      vertex 82 -1.894282990207194 9.573203685930869
    endloop
  endfacet
  facet normal 0 -0.33688985339221716 0.9415440651830217
    outer loop
      vertex -82 -1.4369091524095883 9.736854661874432
      vertex 82 -1.894282990207194 9.573203685930869
      vertex 82 -1.4369091524095883 9.736854661874432
    endloop
  endfacet
  facet normal 0 -0.24298017990326903 0.9700312531945428
    outer loop
      vertex -82 -0.9656970939798347 9.854887137995991
      vertex 82 -1.4369091524095883 9.736854661874432
      vertex 82 -0.9656970939798347 9.854887137995991
    endloop
  endfacet
  facet normal 0 -0.1467304744553606 0.9891765099647811
    outer loop
      vertex -82 -0.48518484463132494 9.926164397027375
      vertex 82 -0.9656970939798347 9.854887137995991
      vertex 82 -0.48518484463132494 9.926164397027375
    endloop
  endfacet
  facet normal 0 -0.04906767432741669 0.9987954562051724
    outer loop
      vertex -82 0 9.95
      vertex 82 -0.48518484463132494 9.926164397027375
      vertex 82 0 9.95
    endloop
  endfacet
  facet normal 1 0 0
    outer loop
      vertex 70 -10 -4
      vertex 70 -4.949999999999999 5
      vertex 70 -10 5
    endloop
  endfacet
  facet normal 0 -1 0
    outer loop
      vertex 70 -4.949999999999999 -4
      vertex 82 -4.949999999999999 5
      vertex 70 -4.949999999999999 5
    endloop
  endfacet
  facet normal 1 0 0
    outer loop
      vertex 82 -2.7500726534470306 0.8842254191024015
      vertex 82 -2.333413847288688 0.634489741475643
      vertex 82 -2.7500726534470306 9.115774580897599
    endloop
  endfacet
  facet normal 1 0 0
    outer loop
      vertex 82 -2.7500726534470306 0.8842254191024015
      vertex 82 -3.1402467566100447 8.826401744145548
      vertex 82 -3.1402467566100447 1.1735982558544524
    endloop
  endfacet
  facet normal 1 0 0
    outer loop
      vertex 82 -1.4369091524095883 0.2631453381255673
      vertex 82 -0.9656970939798347 0.14511286200400964
      vertex 82 -1.4369091524095883 9.736854661874432
    endloop
  endfacet
  facet normal 1 0 0
    outer loop
      vertex 82 -1.894282990207194 0.4267963140691311
      vertex 82 -2.333413847288688 9.365510258524356
      vertex 82 -2.333413847288688 0.634489741475643
    endloop
  endfacet
  facet normal 1 0 0
    outer loop
      vertex 82 -1.4369091524095883 0.2631453381255673
      vertex 82 -1.894282990207194 9.573203685930869
      vertex 82 -1.894282990207194 0.4267963140691311
    endloop
  endfacet
  facet normal 1 0 0
    outer loop
      vertex 82 -0.9656970939798347 0.14511286200400964
      vertex 82 -0.48518484463132494 0.07383560297262548
      vertex 82 -0.9656970939798347 9.854887137995991
    endloop
  endfacet
  facet normal 1 0 0
    outer loop
      vertex 82 -0.48518484463132494 0.07383560297262548
      vertex 82 0 0.05000000000000071
      vertex 82 -0.48518484463132494 9.926164397027375
    endloop
  endfacet
  facet normal 1 0 0
    outer loop
      vertex 82 -3.8264017441455476 1.8597532433899553
      vertex 82 -4.1157745808975985 7.750072653447031
      vertex 82 -4.1157745808975985 2.2499273465529694
    endloop
  endfacet
  facet normal 1 0 0
    outer loop
      vertex 82 -4.365510258524357 2.666586152711312
      vertex 82 -4.573203685930869 6.894282990207194
      vertex 82 -4.573203685930869 3.105717009792806
    endloop
  endfacet
  facet normal 1 0 0
    outer loop
      vertex 82 -4.1157745808975985 2.2499273465529694
      vertex 82 -4.365510258524357 7.333413847288687
      vertex 82 -4.365510258524357 2.666586152711312
    endloop
  endfacet
  facet normal 1 0 0
    outer loop
      vertex 82 -3.50017856687341 1.49982143312659
      vertex 82 -3.8264017441455476 8.140246756610045
      vertex 82 -3.8264017441455476 1.8597532433899553
    endloop
  endfacet
  facet normal 1 0 0
    outer loop
      vertex 82 -3.1402467566100447 1.1735982558544524
      vertex 82 -3.50017856687341 8.50017856687341
      vertex 82 -3.50017856687341 1.49982143312659
    endloop
  endfacet
  facet normal 1 0 0
    outer loop
      vertex 82 -4.573203685930869 3.105717009792806
      vertex 82 -4.736854661874433 6.436909152409588
      vertex 82 -4.736854661874433 3.563090847590412
    endloop
  endfacet
  facet normal 1 0 0
    outer loop
      vertex 82 -4.736854661874433 3.563090847590412
      vertex 82 -4.85488713799599 5.965697093979835
      vertex 82 -4.85488713799599 4.034302906020165
    endloop
  endfacet
  facet normal 1 0 0
    outer loop
      vertex 82 -4.85488713799599 4.034302906020165
      vertex 82 -4.9261643970273745 5.485184844631325
      vertex 82 -4.9261643970273745 4.514815155368675
    endloop
  endfacet
  facet normal 0 -0.9987954562051724 0.049067674327416676
    outer loop
      vertex 82 -4.949999999999999 5
      vertex 82 -4.9261643970273745 5.485184844631325
      vertex 70 -4.949999999999999 5
    endloop
  endfacet
  facet normal 1 0 0
    outer loop
      vertex 82 -4.9261643970273745 4.514815155368675
      vertex 82 -4.9261643970273745 5.485184844631325
      vertex 82 -4.949999999999999 5
    endloop
  endfacet
  facet normal 1 0 0
    outer loop
      vertex 82 -4.85488713799599 4.034302906020165
      vertex 82 -4.85488713799599 5.965697093979835
      vertex 82 -4.9261643970273745 5.485184844631325
    endloop
  endfacet
  facet normal 1 0 0
    outer loop
      vertex 82 -4.736854661874433 3.563090847590412
      vertex 82 -4.736854661874433 6.436909152409588
      vertex 82 -4.85488713799599 5.965697093979835
    endloop
  endfacet
  facet normal 1 0 0
    outer loop
      vertex 82 -4.573203685930869 3.105717009792806
      vertex 82 -4.573203685930869 6.894282990207194
      vertex 82 -4.736854661874433 6.436909152409588
    endloop
  endfacet
  facet normal 1 0 0
    outer loop
      vertex 82 -4.365510258524357 2.666586152711312
      vertex 82 -4.365510258524357 7.333413847288687
      vertex 82 -4.573203685930869 6.894282990207194
    endloop
  endfacet
  facet normal 1 0 0
    outer loop
      vertex 82 -4.1157745808975985 2.2499273465529694
      vertex 82 -4.1157745808975985 7.750072653447031
      vertex 82 -4.365510258524357 7.333413847288687
    endloop
  endfacet
  facet normal 1 0 0
    outer loop
      vertex 82 -3.8264017441455476 1.8597532433899553
      vertex 82 -3.8264017441455476 8.140246756610045
      vertex 82 -4.1157745808975985 7.750072653447031
    endloop
  endfacet
  facet normal 1 0 0
    outer loop
      vertex 82 -3.50017856687341 1.49982143312659
      vertex 82 -3.50017856687341 8.50017856687341
      vertex 82 -3.8264017441455476 8.140246756610045
    endloop
  endfacet
  facet normal 1 0 0
    outer loop
      vertex 82 -3.1402467566100447 1.1735982558544524
      vertex 82 -3.1402467566100447 8.826401744145548
      vertex 82 -3.50017856687341 8.50017856687341
    endloop
  endfacet
  facet normal 1 0 0
    outer loop
      vertex 82 -2.7500726534470306 0.8842254191024015
      vertex 82 -2.7500726534470306 9.115774580897599
      vertex 82 -3.1402467566100447 8.826401744145548
    endloop
  endfacet
  facet normal 1 0 0
    outer loop
      vertex 82 -2.333413847288688 0.634489741475643
      vertex 82 -2.333413847288688 9.365510258524356
      vertex 82 -2.7500726534470306 9.115774580897599
    endloop
  endfacet
  facet normal 1 0 0
    outer loop
      vertex 82 -1.894282990207194 0.4267963140691311
      vertex 82 -1.894282990207194 9.573203685930869
      vertex 82 -2.333413847288688 9.365510258524356
    endloop
  endfacet
  facet normal 1 0 0
    outer loop
      vertex 82 -1.4369091524095883 0.2631453381255673
      vertex 82 -1.4369091524095883 9.736854661874432
      vertex 82 -1.894282990207194 9.573203685930869
    endloop
  endfacet
  facet normal 1 0 0
    outer loop
      vertex 82 -0.9656970939798347 0.14511286200400964
      vertex 82 -0.9656970939798347 9.854887137995991
      vertex 82 -1.4369091524095883 9.736854661874432
    endloop
  endfacet
  facet normal 1 0 0
    outer loop
      vertex 82 -0.48518484463132494 0.07383560297262548
      vertex 82 -0.48518484463132494 9.926164397027375
      vertex 82 -0.9656970939798347 9.854887137995991
    endloop
  endfacet
  facet normal 1 0 0
    outer loop
      vertex 82 -0.48518484463132494 9.926164397027375
      vertex 82 0 0.05000000000000071
      vertex 82 0 9.95
    endloop
  endfacet
  facet normal 0 0 -1
    outer loop
      vertex -82 -4.949999999999999 -10
      vertex 70 4.949999999999999 -10
      vertex 82 4.949999999999999 -10
    endloop
  endfacet
  facet normal 0 1 0
    outer loop
      vertex -70 40 -4
      vertex 70 40 -4
      vertex 70 40 -10
    endloop
  endfacet
  facet normal 0 0 1
    outer loop
      vertex -70 40 -4
      vertex 70 10 -4
      vertex 70 40 -4
    endloop
  endfacet
  facet normal 0 0 -1
    outer loop
      vertex 70 40 -10
      vertex 70 4.949999999999999 -10
      vertex -8.662500000000001 4.949999999999999 -10
    endloop
  endfacet
  facet normal 1 0 0
    outer loop
      vertex 70 10 -4
      vertex 70 4.949999999999999 -4
      vertex 70 4.949999999999999 -10
    endloop
  endfacet
  facet normal 1 0 0
    outer loop
      vertex 70 10 -4
      vertex 70 4.949999999999999 -10
      vertex 70 40 -10
    endloop
  endfacet
  facet normal 0 1 0
    outer loop
      vertex 82 4.949999999999999 -10
      vertex 70 4.949999999999999 -10
      vertex 82 4.949999999999999 5
    endloop
  endfacet
  facet normal 0 1 0
    outer loop
      vertex 70 4.949999999999999 -10
      vertex 70 4.949999999999999 -4
      vertex 82 4.949999999999999 5
    endloop
  endfacet
  facet normal 1 0 0
    outer loop
      vertex 82 4.949999999999999 -10
      vertex 82 -0.9656970939798347 0.14511286200400964
      vertex 82 -1.4369091524095883 0.2631453381255673
    endloop
  endfacet
  facet normal 1 0 0
    outer loop
      vertex 82 4.949999999999999 -10
      vertex 82 -0.48518484463132494 0.07383560297262548
      vertex 82 -0.9656970939798347 0.14511286200400964
    endloop
  endfacet
  facet normal 1 0 0
    outer loop
      vertex 82 4.949999999999999 -10
      vertex 82 0 0.05000000000000071
      vertex 82 -0.48518484463132494 0.07383560297262548
    endloop
  endfacet
  facet normal 1 0 0
    outer loop
      vertex 82 4.949999999999999 -10
      vertex 82 0.48518484463132494 0.07383560297262548
      vertex 82 0 0.05000000000000071
    endloop
  endfacet
  facet normal 1 0 0
    outer loop
      vertex 82 4.949999999999999 -10
      vertex 82 0.9656970939798347 0.14511286200400964
      vertex 82 0.48518484463132494 0.07383560297262548
    endloop
  endfacet
  facet normal 1 0 0
    outer loop
      vertex 82 4.949999999999999 -10
      vertex 82 1.4369091524095883 0.2631453381255673
      vertex 82 0.9656970939798347 0.14511286200400964
    endloop
  endfacet
  facet normal 1 0 0
    outer loop
      vertex 82 4.949999999999999 -10
      vertex 82 -1.4369091524095883 0.2631453381255673
      vertex 82 -1.894282990207194 0.4267963140691311
    endloop
  endfacet
  facet normal 1 0 0
    outer loop
      vertex 82 4.949999999999999 -10
      vertex 82 1.894282990207194 0.4267963140691311
      vertex 82 1.4369091524095883 0.2631453381255673
    endloop
  endfacet
  facet normal 1 0 0
    outer loop
      vertex 82 4.949999999999999 -10
      vertex 82 2.333413847288688 0.634489741475643
      vertex 82 1.894282990207194 0.4267963140691311
    endloop
  endfacet
  facet normal 1 0 0
    outer loop
      vertex 82 4.949999999999999 -10
      vertex 82 2.7500726534470306 0.8842254191024015
      vertex 82 2.333413847288688 0.634489741475643
    endloop
  endfacet
  facet normal 1 0 0
    outer loop
      vertex 82 4.949999999999999 -10
      vertex 82 3.1402467566100447 1.1735982558544524
      vertex 82 2.7500726534470306 0.8842254191024015
    endloop
  endfacet
  facet normal 1 0 0
    outer loop
      vertex 70 10 -4
      vertex 70 10 5
      vertex 70 4.949999999999999 -4
    endloop
  endfacet
  facet normal 1 0 0
    outer loop
      vertex 82 4.949999999999999 -10
      vertex 82 3.50017856687341 1.49982143312659
      vertex 82 3.1402467566100447 1.1735982558544524
    endloop
  endfacet
  facet normal 1 0 0
    outer loop
      vertex 82 4.949999999999999 -10
      vertex 82 3.8264017441455476 1.8597532433899553
      vertex 82 3.50017856687341 1.49982143312659
    endloop
  endfacet
  facet normal 1 0 0
    outer loop
      vertex 82 4.949999999999999 -10
      vertex 82 4.1157745808975985 2.2499273465529694
      vertex 82 3.8264017441455476 1.8597532433899553
    endloop
  endfacet
  facet normal 1 0 0
    outer loop
      vertex 82 4.949999999999999 -10
      vertex 82 4.365510258524357 2.666586152711312
      vertex 82 4.1157745808975985 2.2499273465529694
    endloop
  endfacet
  facet normal 1 0 0
    outer loop
      vertex 82 4.949999999999999 -10
      vertex 82 4.573203685930869 3.105717009792806
      vertex 82 4.365510258524357 2.666586152711312
    endloop
  endfacet
  facet normal 1 0 0
    outer loop
      vertex 82 4.949999999999999 -10
      vertex 82 4.736854661874433 3.563090847590412
      vertex 82 4.573203685930869 3.105717009792806
    endloop
  endfacet
  facet normal 1 0 0
    outer loop
      vertex 82 4.949999999999999 -10
      vertex 82 4.85488713799599 4.034302906020165
      vertex 82 4.736854661874433 3.563090847590412
    endloop
  endfacet
  facet normal 1 0 0
    outer loop
      vertex 82 4.949999999999999 -10
      vertex 82 4.9261643970273745 4.514815155368675
      vertex 82 4.85488713799599 4.034302906020165
    endloop
  endfacet
  facet normal 1 0 0
    outer loop
      vertex 82 4.949999999999999 -10
      vertex 82 4.949999999999999 5
      vertex 82 4.9261643970273745 4.514815155368675
    endloop
  endfacet
  facet normal 1 0 0
    outer loop
      vertex 70 10 -4
      vertex 70 40 -10
      vertex 70 40 -4
    endloop
  endfacet
  facet normal 0 1 0
    outer loop
      vertex -70 10 5
      vertex 70 10 5
      vertex 70 10 -4
    endloop
  endfacet
  facet normal 0 0.9987954562051724 0.04906767432741661
    outer loop
      vertex -82 4.9261643970273745 5.485184844631325
      vertex 82 4.949999999999999 5
      vertex 70 4.949999999999999 5
    endloop
  endfacet
  facet normal 0 0.9987954562051725 0.049067674327416676
    outer loop
      vertex -82 4.9261643970273745 5.485184844631325
      vertex 82 4.9261643970273745 5.485184844631325
      vertex 82 4.949999999999999 5
    endloop
  endfacet
  facet normal 0 0.9891765099647809 0.14673047445536236
    outer loop
      vertex -82 4.85488713799599 5.965697093979835
      vertex 82 4.85488713799599 5.965697093979835
      vertex 82 4.9261643970273745 5.485184844631325
    endloop
  endfacet
  facet normal 0 0.9700312531945434 0.2429801799032658
    outer loop
      vertex -82 4.736854661874433 6.436909152409588
      vertex 82 4.736854661874433 6.436909152409588
      vertex 82 4.85488713799599 5.965697093979835
    endloop
  endfacet
  facet normal 0 0.9415440651830213 0.3368898533922187
    outer loop
      vertex -82 4.573203685930869 6.894282990207194
      vertex 82 4.573203685930869 6.894282990207194
      vertex 82 4.736854661874433 6.436909152409588
    endloop
  endfacet
  facet normal 0 0.9039892931234433 0.4275550934302823
    outer loop
      vertex -82 4.365510258524357 7.333413847288687
      vertex 82 4.365510258524357 7.333413847288687
      vertex 82 4.573203685930869 6.894282990207194
    endloop
  endfacet
  facet normal 0 0 1
    outer loop
      vertex 70 10 5
      vertex -70 4.949999999999999 5
      vertex 70 4.949999999999999 5
    endloop
  endfacet
  facet normal 0 0.8577286100002727 0.514102744193221
    outer loop
      vertex -82 4.1157745808975985 7.750072653447031
      vertex 82 4.1157745808975985 7.750072653447031
      vertex 82 4.365510258524357 7.333413847288687
    endloop
  endfacet
  facet normal 0 0.8032075314806448 0.5956993044924334
    outer loop
      vertex -82 3.8264017441455476 8.140246756610045
      vertex 82 3.8264017441455476 8.140246756610045
      vertex 82 4.1157745808975985 7.750072653447031
    endloop
  endfacet
  facet normal 0 0.7409511253549595 0.671558954847018
    outer loop
      vertex -82 3.50017856687341 8.50017856687341
      vertex 82 3.50017856687341 8.50017856687341
      vertex 82 3.8264017441455476 8.140246756610045
    endloop
  endfacet
  facet normal 0 0.6715589548470174 0.7409511253549599
    outer loop
      vertex -82 3.50017856687341 8.50017856687341
      vertex 82 3.1402467566100447 8.826401744145548
      vertex 82 3.50017856687341 8.50017856687341
    endloop
  endfacet
  facet normal 0 0.04906767432741669 0.9987954562051724
    outer loop
      vertex -82 0.48518484463132494 9.926164397027375
      vertex 82 0 9.95
      vertex 82 0.48518484463132494 9.926164397027375
    endloop
  endfacet
  facet normal 0 0.1467304744553606 0.9891765099647811
    outer loop
      vertex -82 0.9656970939798347 9.854887137995991
      vertex 82 0.48518484463132494 9.926164397027375
      vertex 82 0.9656970939798347 9.854887137995991
    endloop
  endfacet
  facet normal 0 0.33688985339221716 0.9415440651830217
    outer loop
      vertex -82 1.894282990207194 9.573203685930869
      vertex 82 1.4369091524095883 9.736854661874432
      vertex 82 1.894282990207194 9.573203685930869
    endloop
  endfacet
  facet normal 0 0.4275550934302834 0.9039892931234427
    outer loop
      vertex -82 2.333413847288688 9.365510258524356
      vertex 82 1.894282990207194 9.573203685930869
      vertex 82 2.333413847288688 9.365510258524356
    endloop
  endfacet
  facet normal 0 0.24298017990326903 0.9700312531945428
    outer loop
      vertex -82 1.4369091524095883 9.736854661874432
      vertex 82 0.9656970939798347 9.854887137995991
      vertex 82 1.4369091524095883 9.736854661874432
    endloop
  endfacet
  facet normal 0 0.5956993044924334 0.8032075314806448
    outer loop
      vertex -82 3.1402467566100447 8.826401744145548
      vertex 82 2.7500726534470306 9.115774580897599
      vertex 82 3.1402467566100447 8.826401744145548
    endloop
  endfacet
  facet normal 0 0.5141027441932203 0.8577286100002728
    outer loop
      vertex -82 2.7500726534470306 9.115774580897599
      vertex 82 2.333413847288688 9.365510258524356
      vertex 82 2.7500726534470306 9.115774580897599
    endloop
  endfacet
  facet normal 1 0 0
    outer loop
      vertex 70 10 5
      vertex 70 4.949999999999999 5
      vertex 70 4.949999999999999 -4
    endloop
  endfacet
  facet normal 0 1 0
    outer loop
      vertex 70 4.949999999999999 -4
      vertex 70 4.949999999999999 5
      vertex 82 4.949999999999999 5
    endloop
  endfacet
  facet normal 1 0 0
    outer loop
      vertex 82 0 0.05000000000000071
      vertex 82 0.48518484463132494 0.07383560297262548
      vertex 82 0 9.95
    endloop
  endfacet
  facet normal 1 0 0
    outer loop
      vertex 82 0.48518484463132494 0.07383560297262548
      vertex 82 0.9656970939798347 0.14511286200400964
      vertex 82 0.48518484463132494 9.926164397027375
    endloop
  endfacet
  facet normal 1 0 0
    outer loop
      vertex 82 0.9656970939798347 0.14511286200400964
      vertex 82 1.4369091524095883 0.2631453381255673
      vertex 82 0.9656970939798347 9.854887137995991
    endloop
  endfacet
  facet normal 1 0 0
    outer loop
      vertex 82 1.4369091524095883 0.2631453381255673
      vertex 82 1.894282990207194 0.4267963140691311
      vertex 82 1.4369091524095883 9.736854661874432
    endloop
  endfacet
  facet normal 1 0 0
    outer loop
      vertex 82 1.894282990207194 0.4267963140691311
      vertex 82 2.333413847288688 0.634489741475643
      vertex 82 1.894282990207194 9.573203685930869
    endloop
  endfacet
  facet normal 1 0 0
    outer loop
      vertex 82 2.333413847288688 0.634489741475643
      vertex 82 2.7500726534470306 0.8842254191024015
      vertex 82 2.333413847288688 9.365510258524356
    endloop
  endfacet
  facet normal 1 0 0
    outer loop
      vertex 82 2.7500726534470306 0.8842254191024015
      vertex 82 3.1402467566100447 1.1735982558544524
      vertex 82 2.7500726534470306 9.115774580897599
    endloop
  endfacet
  facet normal 1 0 0
    outer loop
      vertex 82 3.1402467566100447 1.1735982558544524
      vertex 82 3.50017856687341 1.49982143312659
      vertex 82 3.1402467566100447 8.826401744145548
    endloop
  endfacet
  facet normal 1 0 0
    outer loop
      vertex 82 3.50017856687341 1.49982143312659
      vertex 82 3.8264017441455476 1.8597532433899553
      vertex 82 3.50017856687341 8.50017856687341
    endloop
  endfacet
  facet normal 1 0 0
    outer loop
      vertex 82 3.8264017441455476 1.8597532433899553
      vertex 82 4.1157745808975985 2.2499273465529694
      vertex 82 3.8264017441455476 8.140246756610045
    endloop
  endfacet
  facet normal 1 0 0
    outer loop
      vertex 82 4.1157745808975985 2.2499273465529694
      vertex 82 4.365510258524357 2.666586152711312
      vertex 82 4.1157745808975985 7.750072653447031
    endloop
  endfacet
  facet normal 1 0 0
    outer loop
      vertex 82 4.365510258524357 2.666586152711312
      vertex 82 4.573203685930869 3.105717009792806
      vertex 82 4.365510258524357 7.333413847288687
    endloop
  endfacet
  facet normal 1 0 0
    outer loop
      vertex 82 4.573203685930869 3.105717009792806
      vertex 82 4.736854661874433 3.563090847590412
      vertex 82 4.573203685930869 6.894282990207194
    endloop
  endfacet
  facet normal 1 0 0
    outer loop
      vertex 82 4.736854661874433 3.563090847590412
      vertex 82 4.85488713799599 4.034302906020165
      vertex 82 4.736854661874433 6.436909152409588
    endloop
  endfacet
  facet normal 1 0 0
    outer loop
      vertex 82 4.85488713799599 4.034302906020165
      vertex 82 4.9261643970273745 4.514815155368675
      vertex 82 4.85488713799599 5.965697093979835
    endloop
  endfacet
  facet normal 1 0 0
    outer loop
      vertex 82 4.9261643970273745 4.514815155368675
      vertex 82 4.949999999999999 5
      vertex 82 4.9261643970273745 5.485184844631325
    endloop
  endfacet
  facet normal 1 0 0
    outer loop
      vertex 82 4.9261643970273745 4.514815155368675
      vertex 82 4.9261643970273745 5.485184844631325
      vertex 82 4.85488713799599 5.965697093979835
    endloop
  endfacet
  facet normal 1 0 0
    outer loop
      vertex 82 4.85488713799599 4.034302906020165
      vertex 82 4.85488713799599 5.965697093979835
      vertex 82 4.736854661874433 6.436909152409588
    endloop
  endfacet
  facet normal 1 0 0
    outer loop
      vertex 82 3.8264017441455476 1.8597532433899553
      vertex 82 3.8264017441455476 8.140246756610045
      vertex 82 3.50017856687341 8.50017856687341
    endloop
  endfacet
  facet normal 1 0 0
    outer loop
      vertex 82 4.736854661874433 3.563090847590412
      vertex 82 4.736854661874433 6.436909152409588
      vertex 82 4.573203685930869 6.894282990207194
    endloop
  endfacet
  facet normal 1 0 0
    outer loop
      vertex 82 4.573203685930869 3.105717009792806
      vertex 82 4.573203685930869 6.894282990207194
      vertex 82 4.365510258524357 7.333413847288687
    endloop
  endfacet
  facet normal 1 0 0
    outer loop
      vertex 82 4.1157745808975985 2.2499273465529694
      vertex 82 4.1157745808975985 7.750072653447031
      vertex 82 3.8264017441455476 8.140246756610045
    endloop
  endfacet
  facet normal 1 0 0
    outer loop
      vertex 82 4.365510258524357 2.666586152711312
      vertex 82 4.365510258524357 7.333413847288687
      vertex 82 4.1157745808975985 7.750072653447031
    endloop
  endfacet
  facet normal 1 0 0
    outer loop
      vertex 82 0.48518484463132494 0.07383560297262548
      vertex 82 0.48518484463132494 9.926164397027375
      vertex 82 0 9.95
    endloop
  endfacet
  facet normal 1 0 0
    outer loop
      vertex 82 0.9656970939798347 0.14511286200400964
      vertex 82 0.9656970939798347 9.854887137995991
      vertex 82 0.48518484463132494 9.926164397027375
    endloop
  endfacet
  facet normal 1 0 0
    outer loop
      vertex 82 1.4369091524095883 0.2631453381255673
      vertex 82 1.4369091524095883 9.736854661874432
      vertex 82 0.9656970939798347 9.854887137995991
    endloop
  endfacet
  facet normal 1 0 0
    outer loop
      vertex 82 1.894282990207194 0.4267963140691311
      vertex 82 1.894282990207194 9.573203685930869
      vertex 82 1.4369091524095883 9.736854661874432
    endloop
  endfacet
  facet normal 1 0 0
    outer loop
      vertex 82 2.333413847288688 0.634489741475643
      vertex 82 2.333413847288688 9.365510258524356
      vertex 82 1.894282990207194 9.573203685930869
    endloop
  endfacet
  facet normal 1 0 0
    outer loop
      vertex 82 2.7500726534470306 0.8842254191024015
      vertex 82 2.7500726534470306 9.115774580897599
      vertex 82 2.333413847288688 9.365510258524356
    endloop
  endfacet
  facet normal 1 0 0
    outer loop
      vertex 82 3.1402467566100447 1.1735982558544524
      vertex 82 3.1402467566100447 8.826401744145548
      vertex 82 2.7500726534470306 9.115774580897599
    endloop
  endfacet
  facet normal 1 0 0
    outer loop
      vertex 82 3.50017856687341 1.49982143312659
      vertex 82 3.50017856687341 8.50017856687341
      vertex 82 3.1402467566100447 8.826401744145548
    endloop
  endfacet
endsolid OpenSCAD_Model
